<svg width="32" height="32" viewBox="0 0 32 32" fill="none" xmlns="http://www.w3.org/2000/svg">
  <path d="M16 2C10.477 2 6 6.477 6 12V24C6 25.105 6.895 26 8 26C9.105 26 10 25.105 10 24V22C10 21.448 10.448 21 11 21C11.552 21 12 21.448 12 22V24C12 25.105 12.895 26 14 26C15.105 26 16 25.105 16 24V22C16 21.448 16.448 21 17 21C17.552 21 18 21.448 18 22V24C18 25.105 18.895 26 20 26C21.105 26 22 25.105 22 24V22C22 21.448 22.448 21 23 21C23.552 21 24 21.448 24 22V24C24 25.105 24.895 26 26 26C27.105 26 28 25.105 28 24V12C28 6.477 23.523 2 18 2H16Z" fill="#6b46c1"/>
  <circle cx="12" cy="12" r="2" fill="#0f172a"/>
  <circle cx="20" cy="12" r="2" fill="#0f172a"/>
  <path d="M14 16C14 17.105 14.895 18 16 18C17.105 18 18 17.105 18 16" stroke="#0f172a" stroke-width="1.5" stroke-linecap="round"/>
</svg>